<?xml version="1.0" standalone="no"?>
<!DOCTYPE svg PUBLIC "-//W3C//DTD SVG 20010904//EN"
 "http://www.w3.org/TR/2001/REC-SVG-20010904/DTD/svg10.dtd">
<svg version="1.0" xmlns="http://www.w3.org/2000/svg"
 width="512.000000pt" height="512.000000pt" viewBox="0 0 512.000000 512.000000"
 preserveAspectRatio="xMidYMid meet">

<g transform="translate(0.000000,512.000000) scale(0.100000,-0.100000)"
fill="#000000" stroke="none">
<path d="M2390 4953 c-300 -23 -589 -100 -857 -228 -254 -121 -466 -270 -657
-459 -203 -202 -340 -393 -467 -651 -173 -354 -243 -658 -243 -1055 0 -238 13
-356 65 -569 56 -229 158 -476 280 -678 367 -608 1006 -1026 1724 -1128 371
-53 789 -9 1142 120 144 53 383 173 503 253 362 242 637 555 825 937 86 175
134 301 174 458 80 310 99 628 56 932 -96 688 -478 1293 -1060 1679 -118 78
-359 200 -498 251 -299 109 -676 162 -987 138z m408 -134 c790 -85 1470 -568
1814 -1287 105 -219 179 -482 209 -742 17 -151 7 -452 -21 -610 -126 -720
-587 -1338 -1234 -1654 -222 -109 -419 -172 -664 -213 -169 -28 -544 -25 -717
6 -965 172 -1698 903 -1865 1861 -27 158 -37 441 -21 601 82 791 556 1472
1266 1819 226 111 498 191 740 218 114 13 379 14 493 1z"/>
<path d="M2010 4151 c-69 -22 -122 -66 -156 -131 -14 -28 -19 -65 -22 -182
l-4 -148 -224 0 c-251 0 -278 -6 -327 -72 -43 -58 -47 -88 -47 -345 l0 -244
25 -23 25 -23 0 -639 c0 -412 4 -652 11 -676 13 -48 67 -101 118 -116 24 -8
120 -12 257 -12 243 0 264 5 264 59 0 49 -8 51 -241 51 -232 0 -269 6 -288 46
-17 38 -16 1254 2 1254 6 0 235 -69 507 -153 l495 -153 6 -67 c9 -105 61 -161
149 -161 87 0 138 54 148 159 l7 68 495 154 c272 84 501 153 508 153 16 0 18
-1216 1 -1253 -19 -43 -46 -47 -282 -47 -240 0 -247 -2 -247 -52 0 -55 22 -60
282 -56 224 3 235 4 273 26 43 26 64 50 82 97 8 22 12 207 12 674 l1 644 25
23 25 23 0 244 c0 257 -4 287 -47 345 -49 66 -76 72 -327 72 l-224 0 -4 148
c-3 117 -8 154 -22 182 -25 49 -64 88 -111 113 -39 22 -48 22 -580 24 -297 1
-551 -2 -565 -6z m1089 -119 c67 -34 76 -57 76 -205 l0 -132 -35 0 -35 0 -5
130 c-5 126 -6 130 -30 142 -19 10 -139 13 -510 13 -371 0 -491 -3 -510 -13
-24 -12 -25 -16 -30 -142 l-5 -130 -35 0 -35 0 0 132 c0 117 2 135 21 160 47
64 37 63 594 63 461 0 508 -2 539 -18z m-109 -257 l0 -85 -430 0 -430 0 0 85
0 85 430 0 430 0 0 -85z m757 -219 l28 -24 3 -221 3 -220 -128 -40 c-351 -110
-938 -291 -945 -291 -4 0 -8 9 -8 20 0 30 -58 88 -101 101 -30 9 -48 9 -78 0
-43 -13 -101 -71 -101 -101 0 -11 -3 -20 -7 -20 -6 0 -646 197 -931 286 l-143
45 3 221 3 220 28 24 28 24 1159 0 1159 0 28 -24z m-1163 -792 c12 -12 16 -38
16 -114 0 -76 -4 -102 -16 -114 -8 -9 -19 -16 -24 -16 -5 0 -16 7 -24 16 -23
22 -23 206 0 228 8 9 19 16 24 16 5 0 16 -7 24 -16z"/>
<path d="M2472 2225 c-35 -15 -62 -63 -62 -112 0 -24 -8 -31 -57 -53 -31 -13
-76 -39 -99 -56 l-42 -32 -42 20 c-36 18 -46 19 -80 9 -31 -9 -45 -22 -74 -69
-19 -31 -38 -69 -41 -85 -10 -38 11 -83 49 -107 l32 -19 -1 -121 -1 -121 -31
-20 c-37 -24 -58 -68 -48 -106 12 -50 66 -133 95 -148 38 -19 67 -18 109 4
l34 18 51 -39 c28 -21 72 -46 99 -56 44 -16 47 -19 47 -52 0 -44 32 -97 66
-110 36 -14 144 -12 174 3 30 15 60 71 60 112 0 27 5 32 48 47 26 10 70 35 98
56 l51 39 34 -18 c74 -39 128 -14 177 84 41 80 38 113 -16 157 l-37 30 -1 121
0 120 32 19 c38 24 59 69 49 107 -12 51 -69 132 -101 148 -42 20 -52 19 -97
-5 l-37 -20 -43 33 c-24 18 -69 44 -100 57 -49 22 -57 29 -57 53 0 50 -27 97
-64 112 -44 19 -131 19 -174 0z m124 -154 c0 -59 11 -74 66 -90 66 -20 113
-47 168 -96 28 -25 55 -45 61 -45 5 0 32 11 59 25 l49 25 16 -29 c14 -29 14
-30 -18 -50 -66 -41 -69 -47 -51 -134 14 -70 14 -84 0 -153 -8 -41 -12 -82 -9
-90 3 -8 25 -26 49 -40 24 -14 44 -29 44 -32 0 -4 -9 -18 -19 -31 l-18 -24
-35 21 c-51 32 -72 28 -141 -28 -56 -45 -146 -90 -181 -90 -24 0 -37 -27 -43
-85 -6 -56 -6 -56 -37 -53 -30 3 -31 5 -33 56 -1 54 -15 82 -39 82 -35 0 -125
45 -181 90 -68 55 -91 60 -142 29 l-35 -21 -18 24 c-9 12 -18 26 -18 30 0 3
20 18 44 32 24 14 46 32 49 40 3 8 -1 49 -9 90 -14 69 -14 83 0 153 15 76 15
77 -7 101 -12 13 -34 30 -50 38 -26 14 -27 15 -12 44 l16 30 49 -25 c57 -29
69 -26 127 26 46 42 97 71 161 90 54 16 61 25 69 88 6 49 7 51 37 51 32 0 32
-1 32 -49z"/>
<path d="M2482 1865 c-138 -43 -221 -181 -192 -320 30 -144 169 -242 314 -221
64 10 145 63 183 119 106 158 31 368 -153 423 -57 17 -95 17 -152 -1z m159
-121 c63 -32 98 -114 78 -186 -14 -54 -74 -113 -123 -122 -57 -11 -104 3 -146
43 -142 135 17 356 191 265z"/>
</g>
</svg>
